Coordinates
version=1
nRows=8
nColumns=40
inDegrees=yes

Units are S.I. units (second, meters, Newtons, ...)
Angles are in degrees.

endheader
time	pelvis_tilt	pelvis_list	pelvis_rotation	pelvis_tx	pelvis_ty	pelvis_tz	hip_flexion_r	hip_adduction_r	hip_rotation_r	knee_angle_r	knee_angle_r_beta	ankle_angle_r	subtalar_angle_r	mtp_angle_r	hip_flexion_l	hip_adduction_l	hip_rotation_l	knee_angle_l	knee_angle_l_beta	ankle_angle_l	subtalar_angle_l	mtp_angle_l	lumbar_extension	lumbar_bending	lumbar_rotation	arm_flex_r	arm_add_r	arm_rot_r	elbow_flex_r	pro_sup_r	wrist_flex_r	wrist_dev_r	arm_flex_l	arm_add_l	arm_rot_l	elbow_flex_l	pro_sup_l	wrist_flex_l	wrist_dev_l
     26.11500000	     -5.09432865	     -2.61519244	     -2.26133644	      0.98919374	      0.92318852	      0.41860675	     28.53738742	     -2.72094138	    -15.62024582	     11.75864565	     11.75864565	      1.32004029	      3.88175354	     11.73185735	      0.25364603	     -3.22438601	    -13.73298128	     11.49655807	     11.49655807	     17.34717743	      0.41861093	     -6.71437673	    -11.63757625	      3.37980287	      2.69250934	    -20.25760896	    -12.50064217	    -12.37325364	     27.41633034	     46.59297968	      0.00000000	      0.00000000	     27.08681476	    -18.45785237	     -4.69041020	     87.47634482	     47.19870202	      0.00000000	      0.00000000
     26.12650000	     -5.04634150	     -2.53155787	     -2.29012250	      0.99086966	      0.92140640	      0.42096015	     28.09520254	     -2.43212207	    -15.89919912	     10.80539789	     10.80539789	      1.28962552	      4.12156384	     12.09806003	     -0.58900744	     -3.24319966	    -13.80831026	     11.34041997	     11.34041997	     17.84284102	      0.54361626	     -6.73245901	    -11.39944029	      3.27123600	      2.70666218	    -20.84434962	    -12.24272205	    -12.34421849	     27.30591010	     46.58748920	      0.00000000	      0.00000000	     26.86233762	    -18.40463761	     -4.72316808	     87.73714327	     47.21568770	      0.00000000	      0.00000000
     26.13800000	     -4.86686351	     -2.54697194	     -2.30817542	      0.99277808	      0.91991082	      0.42339726	     27.58796972	     -2.15470516	    -16.21631211	     10.51125416	     10.51125416	      1.23861162	      4.24948104	     11.94742888	     -1.65998212	     -3.37880911	    -14.04268854	     11.07971312	     11.07971312	     18.47302903	      1.06409413	     -6.41010188	    -11.33402104	      3.25988040	      2.72999765	    -21.23254053	    -12.09004979	    -12.32517163	     27.41378678	     46.57300388	      0.00000000	      0.00000000	     26.45390527	    -18.30350018	     -4.75059886	     88.39872425	     47.25372113	      0.00000000	      0.00000000
     26.14950000	     -4.78588635	     -2.57177264	     -2.28302563	      0.99469156	      0.91821925	      0.42594076	     27.35033058	     -1.93644157	    -16.15435469	     10.87611789	     10.87611789	      0.56171216	      3.54181160	      9.57281192	     -2.39287768	     -3.62749498	    -14.40544893	     11.31701146	     11.31701146	     19.65836662	      1.88112285	     -5.10203526	    -11.16261937	      3.27868617	      2.47240279	    -21.37489829	    -12.02435754	    -12.23962277	     27.65690525	     46.54397229	      0.00000000	      0.00000000	     25.52085748	    -18.39443650	     -5.05205410	     89.38931349	     47.35571937	      0.00000000	      0.00000000
     26.16100000	     -4.65058969	     -2.75495318	     -2.19160062	      0.99660273	      0.91677104	      0.42845844	     27.14965834	     -1.69542238	    -16.23296085	     11.80920748	     11.80920748	      0.50408841	      2.92814295	      8.85719158	     -3.14700230	     -4.01207547	    -14.29562152	     11.53757210	     11.53757210	     20.19086577	      1.78747359	     -5.00488461	    -11.04283133	      3.52261657	      2.48525772	    -21.38707892	    -11.99616510	    -12.19884657	     27.57497359	     46.54288685	      0.00000000	      0.00000000	     24.99223889	    -18.22796480	     -5.02612872	     89.29190724	     47.36015302	      0.00000000	      0.00000000
     26.17250000	     -4.55441730	     -2.86621108	     -2.08200369	      0.99843834	      0.91528069	      0.43111163	     27.25747295	     -1.58470317	    -15.90706845	     13.41871879	     13.41871879	      0.35557124	      1.56616186	      7.22117097	     -3.68318531	     -4.37958131	    -14.12488865	     12.07988639	     12.07988639	     20.83398191	      1.66671005	     -4.62273826	    -10.90346520	      3.63639682	      2.44201251	    -21.20640396	    -11.95567603	    -12.14968699	     27.47905301	     46.54303243	      0.00000000	      0.00000000	     24.28299498	    -18.05672034	     -5.06885833	     89.28602549	     47.37499705	      0.00000000	      0.00000000
     26.18400000	     -4.48314282	     -3.04234648	     -1.94198296	      1.00037191	      0.91388612	      0.43391060	     27.12578452	     -1.25145426	    -15.08618873	     14.50108076	     14.50108076	     -1.31140522	     -0.92240659	      2.16164782	     -3.91290378	     -4.92036546	    -14.04808270	     13.24129789	     13.24129789	     22.16268554	      1.57312837	     -2.89017118	    -10.69365691	      3.85471843	      1.99041554	    -20.46945067	    -11.82762435	    -11.98990935	     26.99730227	     46.55207248	      0.00000000	      0.00000000	     23.09111296	    -17.99431149	     -5.54608501	     89.66650472	     47.46698341	      0.00000000	      0.00000000
     26.19550000	     -4.26336157	     -3.16882055	     -1.69126635	      1.00228196	      0.91295724	      0.43638763	     27.13918252	     -1.25395430	    -14.88237998	     16.43190480	     16.43190480	     -1.04539499	     -2.10499330	      0.85489917	     -4.24086847	     -5.38842161	    -13.58997322	     14.37205744	     14.37205744	     22.55785258	      1.13410705	     -2.85497948	    -10.74420637	      4.10584582	      2.02207180	    -19.98139664	    -11.91209129	    -11.96654259	     26.96423519	     46.55520243	      0.00000000	      0.00000000	     22.14690752	    -17.65631488	     -5.46669738	     89.34547585	     47.46619918	      0.00000000	      0.00000000
